<svg width="372" height="355" viewBox="0 0 372 355" fill="none" xmlns="http://www.w3.org/2000/svg">
<path d="M178.5 95.0414C182.832 92.5406 188.168 92.5406 192.5 95.0415L253.411 130.209C257.743 132.709 260.411 137.331 260.411 142.333V212.667C260.411 217.669 257.743 222.291 253.411 224.791L192.5 259.959C188.168 262.459 182.832 262.459 178.5 259.959L117.589 224.791C113.257 222.291 110.589 217.669 110.589 212.667V142.333C110.589 137.331 113.257 132.709 117.589 130.209L178.5 95.0414Z" fill="#FA740E"/>
<mask id="mask0_1_104" style="mask-type:alpha" maskUnits="userSpaceOnUse" x="110" y="93" width="151" height="169">
<path d="M178.5 95.0414C182.832 92.5406 188.168 92.5406 192.5 95.0415L253.411 130.209C257.743 132.709 260.411 137.331 260.411 142.333V212.667C260.411 217.669 257.743 222.291 253.411 224.791L192.5 259.959C188.168 262.459 182.832 262.459 178.5 259.959L117.589 224.791C113.257 222.291 110.589 217.669 110.589 212.667V142.333C110.589 137.331 113.257 132.709 117.589 130.209L178.5 95.0414Z" fill="#C4C4C4"/>
</mask>
<g mask="url(#mask0_1_104)">
<rect x="98" y="219.963" width="186.58" height="63.3883" transform="rotate(-30.5 98 219.963)" fill="white" fill-opacity="0.5"/>
<rect x="89" y="172.302" width="164.13" height="29.7923" transform="rotate(-30.5 89 172.302)" fill="white" fill-opacity="0.5"/>
</g>
<path d="M191.875 96.124L252.786 131.291C256.731 133.569 259.161 137.778 259.161 142.333V212.667C259.161 217.222 256.731 221.431 252.786 223.709L191.875 258.876C187.93 261.154 183.07 261.154 179.125 258.876L118.214 223.709C114.269 221.431 111.839 217.222 111.839 212.667V142.333C111.839 137.778 114.269 133.569 118.214 131.291L179.125 96.124C183.07 93.8464 187.93 93.8464 191.875 96.124Z" stroke="#FA740E" stroke-width="2.5"/>
<path d="M184 107.155C185.238 106.44 186.762 106.44 188 107.155L245.488 140.345C246.725 141.06 247.488 142.38 247.488 143.809V210.191C247.488 211.62 246.725 212.94 245.488 213.655L188 246.845C186.762 247.56 185.238 247.56 184 246.845L126.512 213.655C125.275 212.94 124.512 211.62 124.512 210.191V143.809C124.512 142.38 125.275 141.06 126.512 140.345L184 107.155Z" fill="url(#paint0_linear_1_104)"/>
<path d="M187.375 108.237L244.863 141.428C245.714 141.919 246.238 142.827 246.238 143.809V210.191C246.238 211.173 245.714 212.081 244.863 212.572L187.375 245.763C186.524 246.254 185.476 246.254 184.625 245.763L127.137 212.572C126.286 212.081 125.762 211.173 125.762 210.191V143.809C125.762 142.827 126.286 141.919 127.137 141.428L184.625 108.237C185.476 107.746 186.524 107.746 187.375 108.237Z" stroke="white" stroke-opacity="0.5" stroke-width="2.5"/>
<path d="M162.252 155H159.538V145.156H164.378C164.834 145.156 165.273 145.211 165.697 145.32C166.121 145.425 166.495 145.594 166.818 145.826C167.146 146.054 167.406 146.35 167.598 146.715C167.794 147.079 167.892 147.521 167.892 148.041C167.892 148.447 167.805 148.829 167.632 149.189C167.463 149.545 167.235 149.864 166.948 150.146C166.666 150.424 166.34 150.657 165.971 150.844C165.602 151.026 165.219 151.147 164.822 151.206C165 151.507 165.185 151.792 165.376 152.061C165.572 152.329 165.768 152.582 165.964 152.819C166.164 153.052 166.363 153.268 166.559 153.469C166.755 153.665 166.941 153.845 167.119 154.009C167.538 154.392 167.953 154.722 168.363 155H164.979C164.706 154.74 164.446 154.428 164.2 154.063C163.991 153.754 163.779 153.371 163.564 152.915C163.355 152.455 163.193 151.924 163.079 151.322H162.252V155ZM165.137 148.041C165.137 147.38 164.975 146.895 164.651 146.585C164.332 146.275 163.852 146.12 163.209 146.12H162.252V150.393H163.209C163.551 150.393 163.842 150.329 164.084 150.201C164.33 150.069 164.531 149.896 164.686 149.682C164.84 149.463 164.954 149.212 165.027 148.93C165.1 148.647 165.137 148.351 165.137 148.041ZM177.195 155H174.885V154.057C174.611 154.43 174.281 154.708 173.894 154.891C173.511 155.068 173.089 155.157 172.629 155.157C172.027 155.157 171.49 155.05 171.016 154.836C170.542 154.622 170.141 154.33 169.812 153.961C169.484 153.587 169.234 153.15 169.061 152.648C168.887 152.147 168.801 151.609 168.801 151.035C168.801 150.461 168.887 149.923 169.061 149.422C169.234 148.921 169.484 148.485 169.812 148.116C170.141 147.743 170.542 147.449 171.016 147.234C171.49 147.02 172.027 146.913 172.629 146.913C172.934 146.913 173.224 146.959 173.497 147.05C173.775 147.141 174.028 147.271 174.256 147.439C174.488 147.604 174.691 147.804 174.864 148.041C175.042 148.273 175.181 148.533 175.281 148.82L176.307 147.104H177.195V155ZM174.871 151.035C174.871 150.83 174.86 150.614 174.837 150.386C174.819 150.158 174.785 149.932 174.734 149.709C174.684 149.486 174.614 149.274 174.522 149.073C174.436 148.868 174.322 148.688 174.181 148.533C174.044 148.374 173.878 148.248 173.682 148.157C173.486 148.066 173.258 148.021 172.998 148.021C172.738 148.021 172.513 148.068 172.321 148.164C172.13 148.255 171.966 148.381 171.829 148.54C171.692 148.695 171.578 148.875 171.487 149.08C171.401 149.285 171.332 149.499 171.282 149.723C171.232 149.946 171.196 150.172 171.173 150.399C171.155 150.623 171.146 150.835 171.146 151.035C171.146 151.236 171.155 151.45 171.173 151.678C171.196 151.906 171.232 152.131 171.282 152.354C171.332 152.578 171.401 152.792 171.487 152.997C171.578 153.202 171.692 153.384 171.829 153.544C171.966 153.699 172.13 153.824 172.321 153.92C172.513 154.011 172.738 154.057 172.998 154.057C173.235 154.057 173.445 154.009 173.627 153.913C173.814 153.813 173.976 153.681 174.112 153.517C174.254 153.353 174.372 153.166 174.468 152.956C174.563 152.746 174.641 152.53 174.7 152.307C174.759 152.083 174.803 151.862 174.83 151.644C174.857 151.42 174.871 151.217 174.871 151.035ZM181.557 145.197C181.557 145.37 181.522 145.535 181.454 145.689C181.39 145.844 181.301 145.979 181.188 146.093C181.074 146.207 180.939 146.298 180.784 146.366C180.629 146.43 180.465 146.462 180.292 146.462C180.119 146.462 179.955 146.43 179.8 146.366C179.649 146.298 179.517 146.207 179.403 146.093C179.289 145.979 179.198 145.844 179.13 145.689C179.066 145.535 179.034 145.37 179.034 145.197C179.034 145.024 179.066 144.862 179.13 144.712C179.198 144.557 179.289 144.423 179.403 144.309C179.517 144.195 179.649 144.106 179.8 144.042C179.955 143.974 180.119 143.939 180.292 143.939C180.465 143.939 180.629 143.974 180.784 144.042C180.939 144.106 181.074 144.195 181.188 144.309C181.301 144.423 181.39 144.557 181.454 144.712C181.522 144.862 181.557 145.024 181.557 145.197ZM181.454 155H179.137V147.111H181.454V155ZM190.19 152.478C190.19 152.824 190.14 153.132 190.04 153.4C189.94 153.669 189.803 153.904 189.63 154.104C189.457 154.3 189.252 154.467 189.015 154.604C188.778 154.736 188.522 154.843 188.249 154.925C187.98 155.007 187.698 155.066 187.401 155.103C187.105 155.139 186.811 155.157 186.52 155.157C186.128 155.157 185.781 155.132 185.48 155.082C185.18 155.032 184.893 154.952 184.619 154.843C184.346 154.729 184.072 154.583 183.799 154.405C183.53 154.228 183.229 154.011 182.896 153.756L184.243 152.655C184.366 152.888 184.528 153.1 184.729 153.291C184.934 153.478 185.146 153.64 185.364 153.776C185.583 153.913 185.795 154.018 186 154.091C186.205 154.164 186.371 154.2 186.499 154.2C186.604 154.2 186.722 154.198 186.854 154.193C186.987 154.184 187.121 154.171 187.258 154.152C187.395 154.13 187.529 154.098 187.661 154.057C187.793 154.016 187.91 153.961 188.01 153.893C188.115 153.82 188.197 153.731 188.256 153.626C188.32 153.517 188.352 153.387 188.352 153.236C188.352 153.081 188.311 152.947 188.229 152.833C188.151 152.715 188.049 152.612 187.921 152.525C187.793 152.439 187.647 152.366 187.483 152.307C187.319 152.247 187.153 152.195 186.984 152.149C186.82 152.104 186.661 152.065 186.506 152.033C186.351 151.997 186.216 151.963 186.103 151.931C185.893 151.871 185.672 151.812 185.439 151.753C185.207 151.689 184.977 151.618 184.749 151.541C184.521 151.459 184.302 151.363 184.093 151.254C183.888 151.145 183.705 151.015 183.546 150.864C183.391 150.709 183.266 150.529 183.17 150.324C183.079 150.115 183.033 149.871 183.033 149.593C183.033 149.082 183.133 148.656 183.334 148.314C183.539 147.968 183.808 147.692 184.141 147.487C184.473 147.278 184.852 147.13 185.275 147.043C185.699 146.956 186.13 146.913 186.567 146.913C186.868 146.913 187.185 146.945 187.518 147.009C187.85 147.068 188.174 147.159 188.488 147.282C188.803 147.401 189.097 147.547 189.37 147.72C189.644 147.893 189.871 148.091 190.054 148.314L188.707 149.422C188.607 149.148 188.475 148.914 188.311 148.718C188.151 148.522 187.976 148.362 187.784 148.239C187.597 148.112 187.404 148.018 187.203 147.959C187.007 147.9 186.825 147.87 186.656 147.87C186.492 147.87 186.308 147.877 186.103 147.891C185.897 147.904 185.704 147.943 185.521 148.007C185.344 148.071 185.191 148.169 185.063 148.301C184.94 148.428 184.879 148.606 184.879 148.834C184.879 148.998 184.915 149.139 184.988 149.258C185.066 149.372 185.166 149.472 185.289 149.559C185.412 149.641 185.551 149.711 185.706 149.771C185.866 149.825 186.027 149.875 186.191 149.921C186.355 149.962 186.515 149.998 186.67 150.03C186.825 150.062 186.964 150.096 187.087 150.133C187.297 150.192 187.518 150.254 187.75 150.317C187.987 150.377 188.219 150.447 188.447 150.529C188.675 150.607 188.894 150.7 189.104 150.81C189.318 150.914 189.505 151.044 189.664 151.199C189.824 151.354 189.951 151.536 190.047 151.746C190.143 151.951 190.19 152.195 190.19 152.478ZM193.554 151.254C193.836 151.318 194.119 151.368 194.401 151.404C194.684 151.441 194.969 151.459 195.256 151.459C195.557 151.459 195.835 151.432 196.09 151.377C196.35 151.318 196.573 151.222 196.76 151.09C196.951 150.953 197.102 150.773 197.211 150.55C197.32 150.326 197.375 150.049 197.375 149.716C197.375 149.447 197.339 149.201 197.266 148.978C197.193 148.754 197.083 148.563 196.938 148.403C196.796 148.244 196.621 148.121 196.411 148.034C196.201 147.943 195.958 147.897 195.68 147.897C195.42 147.897 195.185 147.945 194.976 148.041C194.771 148.137 194.588 148.267 194.429 148.431C194.274 148.59 194.139 148.777 194.025 148.991C193.916 149.205 193.825 149.429 193.752 149.661C193.679 149.894 193.627 150.128 193.595 150.365C193.563 150.602 193.547 150.826 193.547 151.035C193.547 151.072 193.547 151.108 193.547 151.145C193.547 151.181 193.549 151.217 193.554 151.254ZM199.248 149.695C199.248 150.019 199.196 150.308 199.091 150.563C198.986 150.814 198.842 151.035 198.66 151.227C198.482 151.418 198.275 151.58 198.038 151.712C197.801 151.844 197.548 151.953 197.279 152.04C197.01 152.122 196.732 152.181 196.445 152.218C196.163 152.254 195.887 152.272 195.618 152.272C195.276 152.272 194.939 152.25 194.606 152.204C194.274 152.154 193.946 152.076 193.622 151.972C193.672 152.272 193.752 152.56 193.861 152.833C193.971 153.102 194.117 153.339 194.299 153.544C194.481 153.744 194.704 153.904 194.969 154.022C195.238 154.141 195.554 154.2 195.919 154.2C196.16 154.2 196.391 154.164 196.609 154.091C196.828 154.018 197.029 153.915 197.211 153.783C197.393 153.651 197.553 153.494 197.689 153.312C197.831 153.129 197.945 152.926 198.031 152.703L199.029 153.072C198.879 153.432 198.672 153.744 198.407 154.009C198.147 154.269 197.851 154.485 197.519 154.658C197.19 154.827 196.84 154.952 196.466 155.034C196.097 155.116 195.73 155.157 195.365 155.157C194.764 155.157 194.208 155.057 193.697 154.856C193.187 154.651 192.747 154.367 192.378 154.002C192.009 153.637 191.719 153.202 191.51 152.696C191.3 152.19 191.195 151.637 191.195 151.035C191.195 150.434 191.3 149.88 191.51 149.374C191.719 148.868 192.009 148.433 192.378 148.068C192.747 147.704 193.187 147.421 193.697 147.221C194.208 147.016 194.764 146.913 195.365 146.913C195.657 146.913 195.955 146.934 196.261 146.975C196.566 147.016 196.862 147.082 197.149 147.173C197.437 147.259 197.708 147.373 197.963 147.515C198.218 147.656 198.439 147.831 198.626 148.041C198.817 148.246 198.968 148.485 199.077 148.759C199.191 149.032 199.248 149.344 199.248 149.695ZM208.647 155H207.759L206.733 153.284C206.633 153.571 206.494 153.831 206.316 154.063C206.143 154.296 205.94 154.496 205.708 154.665C205.48 154.829 205.227 154.957 204.949 155.048C204.676 155.139 204.386 155.185 204.081 155.185C203.479 155.185 202.942 155.077 202.468 154.863C201.994 154.649 201.593 154.357 201.265 153.988C200.937 153.615 200.686 153.177 200.513 152.676C200.34 152.174 200.253 151.637 200.253 151.062C200.253 150.488 200.34 149.951 200.513 149.449C200.686 148.948 200.937 148.513 201.265 148.144C201.593 147.774 201.994 147.483 202.468 147.269C202.942 147.054 203.479 146.947 204.081 146.947C204.541 146.947 204.963 147.036 205.346 147.214C205.733 147.392 206.063 147.67 206.337 148.048V144.199H208.647V155ZM206.323 151.062C206.323 150.88 206.31 150.68 206.282 150.461C206.255 150.242 206.212 150.021 206.152 149.798C206.093 149.575 206.016 149.358 205.92 149.148C205.824 148.939 205.706 148.752 205.564 148.588C205.428 148.424 205.266 148.294 205.079 148.198C204.897 148.098 204.687 148.048 204.45 148.048C204.19 148.048 203.965 148.096 203.773 148.191C203.582 148.283 203.418 148.408 203.281 148.567C203.145 148.722 203.031 148.902 202.939 149.107C202.853 149.312 202.785 149.527 202.734 149.75C202.684 149.973 202.648 150.199 202.625 150.427C202.607 150.65 202.598 150.862 202.598 151.062C202.598 151.263 202.607 151.477 202.625 151.705C202.648 151.928 202.684 152.152 202.734 152.375C202.785 152.598 202.853 152.815 202.939 153.024C203.031 153.229 203.145 153.412 203.281 153.571C203.418 153.726 203.582 153.852 203.773 153.947C203.965 154.038 204.19 154.084 204.45 154.084C204.71 154.084 204.938 154.038 205.134 153.947C205.33 153.856 205.496 153.733 205.633 153.578C205.774 153.419 205.888 153.239 205.975 153.038C206.066 152.833 206.136 152.619 206.187 152.396C206.237 152.168 206.271 151.94 206.289 151.712C206.312 151.484 206.323 151.268 206.323 151.062ZM154.493 177H151.779V167.156H157.098C157.558 167.156 157.998 167.218 158.417 167.341C158.841 167.464 159.215 167.651 159.538 167.901C159.862 168.147 160.119 168.46 160.311 168.838C160.507 169.212 160.604 169.651 160.604 170.157C160.604 170.476 160.559 170.777 160.468 171.06C160.377 171.338 160.249 171.593 160.085 171.825C159.925 172.058 159.736 172.267 159.518 172.454C159.299 172.641 159.06 172.798 158.8 172.926C158.54 173.053 158.264 173.151 157.973 173.22C157.686 173.288 157.394 173.322 157.098 173.322H154.493V177ZM157.856 170.157C157.856 169.524 157.695 169.027 157.371 168.667C157.052 168.302 156.569 168.12 155.922 168.12H154.493V172.393H155.922C156.268 172.393 156.562 172.338 156.804 172.229C157.05 172.115 157.25 171.957 157.405 171.757C157.56 171.556 157.674 171.322 157.747 171.053C157.82 170.779 157.856 170.481 157.856 170.157ZM168.5 169.802L167.201 171.955C167.146 171.773 167.076 171.568 166.989 171.34C166.903 171.112 166.796 170.9 166.668 170.704C166.54 170.504 166.388 170.337 166.21 170.205C166.032 170.068 165.827 170 165.595 170C165.381 170 165.194 170.055 165.034 170.164C164.879 170.273 164.747 170.417 164.638 170.595C164.528 170.768 164.437 170.966 164.364 171.189C164.296 171.408 164.241 171.632 164.2 171.859C164.164 172.083 164.139 172.299 164.125 172.509C164.111 172.714 164.104 172.892 164.104 173.042V177H161.787V169.104H162.676L163.612 170.943C163.74 170.647 163.886 170.376 164.05 170.13C164.214 169.879 164.403 169.665 164.617 169.487C164.831 169.305 165.073 169.164 165.342 169.063C165.615 168.963 165.923 168.913 166.265 168.913C166.442 168.913 166.641 168.929 166.859 168.961C167.078 168.988 167.292 169.038 167.502 169.111C167.712 169.18 167.905 169.271 168.083 169.385C168.261 169.499 168.4 169.638 168.5 169.802ZM171.166 173.254C171.449 173.318 171.731 173.368 172.014 173.404C172.296 173.441 172.581 173.459 172.868 173.459C173.169 173.459 173.447 173.432 173.702 173.377C173.962 173.318 174.185 173.222 174.372 173.09C174.563 172.953 174.714 172.773 174.823 172.55C174.933 172.326 174.987 172.049 174.987 171.716C174.987 171.447 174.951 171.201 174.878 170.978C174.805 170.754 174.696 170.563 174.55 170.403C174.409 170.244 174.233 170.121 174.023 170.034C173.814 169.943 173.57 169.897 173.292 169.897C173.032 169.897 172.798 169.945 172.588 170.041C172.383 170.137 172.201 170.267 172.041 170.431C171.886 170.59 171.752 170.777 171.638 170.991C171.528 171.205 171.437 171.429 171.364 171.661C171.291 171.894 171.239 172.128 171.207 172.365C171.175 172.602 171.159 172.826 171.159 173.035C171.159 173.072 171.159 173.108 171.159 173.145C171.159 173.181 171.161 173.217 171.166 173.254ZM176.86 171.695C176.86 172.019 176.808 172.308 176.703 172.563C176.598 172.814 176.455 173.035 176.272 173.227C176.095 173.418 175.887 173.58 175.65 173.712C175.413 173.844 175.16 173.953 174.892 174.04C174.623 174.122 174.345 174.181 174.058 174.218C173.775 174.254 173.499 174.272 173.23 174.272C172.889 174.272 172.551 174.25 172.219 174.204C171.886 174.154 171.558 174.076 171.234 173.972C171.285 174.272 171.364 174.56 171.474 174.833C171.583 175.102 171.729 175.339 171.911 175.544C172.093 175.744 172.317 175.904 172.581 176.022C172.85 176.141 173.167 176.2 173.531 176.2C173.773 176.2 174.003 176.164 174.222 176.091C174.44 176.018 174.641 175.915 174.823 175.783C175.006 175.651 175.165 175.494 175.302 175.312C175.443 175.129 175.557 174.926 175.644 174.703L176.642 175.072C176.491 175.432 176.284 175.744 176.02 176.009C175.76 176.269 175.464 176.485 175.131 176.658C174.803 176.827 174.452 176.952 174.078 177.034C173.709 177.116 173.342 177.157 172.978 177.157C172.376 177.157 171.82 177.057 171.31 176.856C170.799 176.651 170.359 176.367 169.99 176.002C169.621 175.637 169.332 175.202 169.122 174.696C168.912 174.19 168.808 173.637 168.808 173.035C168.808 172.434 168.912 171.88 169.122 171.374C169.332 170.868 169.621 170.433 169.99 170.068C170.359 169.704 170.799 169.421 171.31 169.221C171.82 169.016 172.376 168.913 172.978 168.913C173.269 168.913 173.568 168.934 173.873 168.975C174.178 169.016 174.475 169.082 174.762 169.173C175.049 169.259 175.32 169.373 175.575 169.515C175.83 169.656 176.051 169.831 176.238 170.041C176.43 170.246 176.58 170.485 176.689 170.759C176.803 171.032 176.86 171.344 176.86 171.695ZM182.896 172.7H178.303V171.442H182.896V172.7ZM192.877 173.992C192.877 174.416 192.822 174.79 192.713 175.113C192.608 175.437 192.458 175.717 192.262 175.954C192.07 176.191 191.842 176.389 191.578 176.549C191.314 176.708 191.024 176.836 190.71 176.932C190.4 177.027 190.07 177.096 189.719 177.137C189.372 177.178 189.019 177.198 188.659 177.198C188.185 177.198 187.748 177.162 187.347 177.089C186.946 177.021 186.567 176.911 186.212 176.761C185.861 176.606 185.521 176.408 185.193 176.166C184.87 175.924 184.546 175.631 184.223 175.284L185.617 173.869C185.745 174.184 185.92 174.475 186.144 174.744C186.367 175.008 186.611 175.236 186.875 175.428C187.144 175.619 187.422 175.77 187.709 175.879C187.996 175.988 188.267 176.043 188.522 176.043C188.823 176.043 189.106 176.022 189.37 175.981C189.634 175.936 189.865 175.863 190.061 175.763C190.257 175.662 190.409 175.53 190.519 175.366C190.632 175.198 190.689 174.988 190.689 174.737C190.689 174.546 190.646 174.382 190.56 174.245C190.473 174.108 190.359 173.992 190.218 173.896C190.081 173.796 189.924 173.712 189.746 173.644C189.568 173.575 189.386 173.518 189.199 173.473C189.017 173.423 188.837 173.379 188.659 173.343C188.481 173.302 188.324 173.261 188.188 173.22C187.919 173.142 187.638 173.06 187.347 172.974C187.055 172.882 186.768 172.78 186.485 172.666C186.203 172.552 185.934 172.422 185.679 172.276C185.428 172.126 185.207 171.951 185.016 171.75C184.824 171.545 184.672 171.31 184.558 171.046C184.444 170.777 184.387 170.469 184.387 170.123C184.387 169.708 184.437 169.341 184.537 169.022C184.642 168.699 184.788 168.419 184.975 168.182C185.161 167.945 185.382 167.746 185.638 167.587C185.893 167.423 186.173 167.293 186.479 167.197C186.784 167.097 187.107 167.026 187.449 166.985C187.796 166.94 188.149 166.917 188.509 166.917C189.001 166.917 189.448 166.963 189.849 167.054C190.254 167.145 190.628 167.275 190.97 167.443C191.312 167.612 191.624 167.815 191.906 168.052C192.193 168.284 192.462 168.544 192.713 168.831L191.318 170.246C191.209 169.918 191.056 169.622 190.86 169.357C190.669 169.093 190.455 168.868 190.218 168.681C189.981 168.489 189.732 168.343 189.473 168.243C189.213 168.138 188.962 168.086 188.721 168.086C188.406 168.086 188.117 168.109 187.853 168.154C187.588 168.195 187.36 168.266 187.169 168.366C186.982 168.462 186.836 168.594 186.731 168.763C186.627 168.927 186.574 169.132 186.574 169.378C186.574 169.574 186.613 169.74 186.69 169.877C186.768 170.014 186.87 170.13 186.998 170.226C187.13 170.321 187.278 170.401 187.442 170.465C187.606 170.524 187.775 170.576 187.948 170.622C188.126 170.668 188.299 170.709 188.468 170.745C188.641 170.777 188.798 170.813 188.939 170.854C189.213 170.932 189.5 171.014 189.801 171.101C190.102 171.187 190.398 171.29 190.689 171.408C190.981 171.522 191.259 171.654 191.523 171.805C191.788 171.955 192.02 172.135 192.221 172.345C192.421 172.55 192.581 172.789 192.699 173.062C192.818 173.331 192.877 173.641 192.877 173.992ZM196.24 173.254C196.523 173.318 196.805 173.368 197.088 173.404C197.37 173.441 197.655 173.459 197.942 173.459C198.243 173.459 198.521 173.432 198.776 173.377C199.036 173.318 199.259 173.222 199.446 173.09C199.638 172.953 199.788 172.773 199.897 172.55C200.007 172.326 200.062 172.049 200.062 171.716C200.062 171.447 200.025 171.201 199.952 170.978C199.879 170.754 199.77 170.563 199.624 170.403C199.483 170.244 199.307 170.121 199.098 170.034C198.888 169.943 198.644 169.897 198.366 169.897C198.106 169.897 197.872 169.945 197.662 170.041C197.457 170.137 197.275 170.267 197.115 170.431C196.96 170.59 196.826 170.777 196.712 170.991C196.603 171.205 196.511 171.429 196.438 171.661C196.366 171.894 196.313 172.128 196.281 172.365C196.249 172.602 196.233 172.826 196.233 173.035C196.233 173.072 196.233 173.108 196.233 173.145C196.233 173.181 196.236 173.217 196.24 173.254ZM201.935 171.695C201.935 172.019 201.882 172.308 201.777 172.563C201.673 172.814 201.529 173.035 201.347 173.227C201.169 173.418 200.962 173.58 200.725 173.712C200.488 173.844 200.235 173.953 199.966 174.04C199.697 174.122 199.419 174.181 199.132 174.218C198.849 174.254 198.574 174.272 198.305 174.272C197.963 174.272 197.626 174.25 197.293 174.204C196.96 174.154 196.632 174.076 196.309 173.972C196.359 174.272 196.438 174.56 196.548 174.833C196.657 175.102 196.803 175.339 196.985 175.544C197.168 175.744 197.391 175.904 197.655 176.022C197.924 176.141 198.241 176.2 198.605 176.2C198.847 176.2 199.077 176.164 199.296 176.091C199.515 176.018 199.715 175.915 199.897 175.783C200.08 175.651 200.239 175.494 200.376 175.312C200.517 175.129 200.631 174.926 200.718 174.703L201.716 175.072C201.565 175.432 201.358 175.744 201.094 176.009C200.834 176.269 200.538 176.485 200.205 176.658C199.877 176.827 199.526 176.952 199.152 177.034C198.783 177.116 198.416 177.157 198.052 177.157C197.45 177.157 196.894 177.057 196.384 176.856C195.873 176.651 195.434 176.367 195.064 176.002C194.695 175.637 194.406 175.202 194.196 174.696C193.987 174.19 193.882 173.637 193.882 173.035C193.882 172.434 193.987 171.88 194.196 171.374C194.406 170.868 194.695 170.433 195.064 170.068C195.434 169.704 195.873 169.421 196.384 169.221C196.894 169.016 197.45 168.913 198.052 168.913C198.343 168.913 198.642 168.934 198.947 168.975C199.253 169.016 199.549 169.082 199.836 169.173C200.123 169.259 200.394 169.373 200.649 169.515C200.905 169.656 201.126 169.831 201.312 170.041C201.504 170.246 201.654 170.485 201.764 170.759C201.878 171.032 201.935 171.344 201.935 171.695ZM205.277 173.254C205.56 173.318 205.842 173.368 206.125 173.404C206.408 173.441 206.692 173.459 206.979 173.459C207.28 173.459 207.558 173.432 207.813 173.377C208.073 173.318 208.297 173.222 208.483 173.09C208.675 172.953 208.825 172.773 208.935 172.55C209.044 172.326 209.099 172.049 209.099 171.716C209.099 171.447 209.062 171.201 208.989 170.978C208.916 170.754 208.807 170.563 208.661 170.403C208.52 170.244 208.344 170.121 208.135 170.034C207.925 169.943 207.681 169.897 207.403 169.897C207.144 169.897 206.909 169.945 206.699 170.041C206.494 170.137 206.312 170.267 206.152 170.431C205.997 170.59 205.863 170.777 205.749 170.991C205.64 171.205 205.549 171.429 205.476 171.661C205.403 171.894 205.35 172.128 205.318 172.365C205.286 172.602 205.271 172.826 205.271 173.035C205.271 173.072 205.271 173.108 205.271 173.145C205.271 173.181 205.273 173.217 205.277 173.254ZM210.972 171.695C210.972 172.019 210.919 172.308 210.814 172.563C210.71 172.814 210.566 173.035 210.384 173.227C210.206 173.418 209.999 173.58 209.762 173.712C209.525 173.844 209.272 173.953 209.003 174.04C208.734 174.122 208.456 174.181 208.169 174.218C207.886 174.254 207.611 174.272 207.342 174.272C207 174.272 206.663 174.25 206.33 174.204C205.997 174.154 205.669 174.076 205.346 173.972C205.396 174.272 205.476 174.56 205.585 174.833C205.694 175.102 205.84 175.339 206.022 175.544C206.205 175.744 206.428 175.904 206.692 176.022C206.961 176.141 207.278 176.2 207.643 176.2C207.884 176.2 208.114 176.164 208.333 176.091C208.552 176.018 208.752 175.915 208.935 175.783C209.117 175.651 209.276 175.494 209.413 175.312C209.554 175.129 209.668 174.926 209.755 174.703L210.753 175.072C210.603 175.432 210.395 175.744 210.131 176.009C209.871 176.269 209.575 176.485 209.242 176.658C208.914 176.827 208.563 176.952 208.189 177.034C207.82 177.116 207.453 177.157 207.089 177.157C206.487 177.157 205.931 177.057 205.421 176.856C204.91 176.651 204.471 176.367 204.102 176.002C203.732 175.637 203.443 175.202 203.233 174.696C203.024 174.19 202.919 173.637 202.919 173.035C202.919 172.434 203.024 171.88 203.233 171.374C203.443 170.868 203.732 170.433 204.102 170.068C204.471 169.704 204.91 169.421 205.421 169.221C205.931 169.016 206.487 168.913 207.089 168.913C207.381 168.913 207.679 168.934 207.984 168.975C208.29 169.016 208.586 169.082 208.873 169.173C209.16 169.259 209.431 169.373 209.687 169.515C209.942 169.656 210.163 169.831 210.35 170.041C210.541 170.246 210.691 170.485 210.801 170.759C210.915 171.032 210.972 171.344 210.972 171.695ZM220.371 177H219.482L218.457 175.284C218.357 175.571 218.218 175.831 218.04 176.063C217.867 176.296 217.664 176.496 217.432 176.665C217.204 176.829 216.951 176.957 216.673 177.048C216.399 177.139 216.11 177.185 215.805 177.185C215.203 177.185 214.665 177.077 214.191 176.863C213.717 176.649 213.316 176.357 212.988 175.988C212.66 175.615 212.41 175.177 212.236 174.676C212.063 174.174 211.977 173.637 211.977 173.062C211.977 172.488 212.063 171.951 212.236 171.449C212.41 170.948 212.66 170.513 212.988 170.144C213.316 169.774 213.717 169.483 214.191 169.269C214.665 169.054 215.203 168.947 215.805 168.947C216.265 168.947 216.687 169.036 217.069 169.214C217.457 169.392 217.787 169.67 218.061 170.048V166.199H220.371V177ZM218.047 173.062C218.047 172.88 218.033 172.68 218.006 172.461C217.979 172.242 217.935 172.021 217.876 171.798C217.817 171.575 217.739 171.358 217.644 171.148C217.548 170.939 217.429 170.752 217.288 170.588C217.151 170.424 216.99 170.294 216.803 170.198C216.62 170.098 216.411 170.048 216.174 170.048C215.914 170.048 215.688 170.096 215.497 170.191C215.306 170.283 215.142 170.408 215.005 170.567C214.868 170.722 214.754 170.902 214.663 171.107C214.576 171.312 214.508 171.527 214.458 171.75C214.408 171.973 214.371 172.199 214.349 172.427C214.33 172.65 214.321 172.862 214.321 173.062C214.321 173.263 214.33 173.477 214.349 173.705C214.371 173.928 214.408 174.152 214.458 174.375C214.508 174.598 214.576 174.815 214.663 175.024C214.754 175.229 214.868 175.412 215.005 175.571C215.142 175.726 215.306 175.852 215.497 175.947C215.688 176.038 215.914 176.084 216.174 176.084C216.434 176.084 216.661 176.038 216.857 175.947C217.053 175.856 217.22 175.733 217.356 175.578C217.498 175.419 217.612 175.239 217.698 175.038C217.789 174.833 217.86 174.619 217.91 174.396C217.96 174.168 217.994 173.94 218.013 173.712C218.035 173.484 218.047 173.268 218.047 173.062ZM142.619 196.478C142.619 196.824 142.569 197.132 142.469 197.4C142.368 197.669 142.232 197.904 142.059 198.104C141.885 198.3 141.68 198.467 141.443 198.604C141.206 198.736 140.951 198.843 140.678 198.925C140.409 199.007 140.126 199.066 139.83 199.103C139.534 199.139 139.24 199.157 138.948 199.157C138.556 199.157 138.21 199.132 137.909 199.082C137.608 199.032 137.321 198.952 137.048 198.843C136.774 198.729 136.501 198.583 136.228 198.405C135.959 198.228 135.658 198.011 135.325 197.756L136.672 196.655C136.795 196.888 136.957 197.1 137.157 197.291C137.362 197.478 137.574 197.64 137.793 197.776C138.012 197.913 138.224 198.018 138.429 198.091C138.634 198.164 138.8 198.2 138.928 198.2C139.033 198.2 139.151 198.198 139.283 198.193C139.415 198.184 139.55 198.171 139.687 198.152C139.823 198.13 139.958 198.098 140.09 198.057C140.222 198.016 140.338 197.961 140.438 197.893C140.543 197.82 140.625 197.731 140.685 197.626C140.748 197.517 140.78 197.387 140.78 197.236C140.78 197.081 140.739 196.947 140.657 196.833C140.58 196.715 140.477 196.612 140.35 196.525C140.222 196.439 140.076 196.366 139.912 196.307C139.748 196.247 139.582 196.195 139.413 196.149C139.249 196.104 139.09 196.065 138.935 196.033C138.78 195.997 138.645 195.963 138.531 195.931C138.322 195.871 138.101 195.812 137.868 195.753C137.636 195.689 137.406 195.618 137.178 195.541C136.95 195.459 136.731 195.363 136.521 195.254C136.316 195.145 136.134 195.015 135.975 194.864C135.82 194.709 135.694 194.529 135.599 194.324C135.507 194.115 135.462 193.871 135.462 193.593C135.462 193.082 135.562 192.656 135.763 192.314C135.968 191.968 136.237 191.692 136.569 191.487C136.902 191.278 137.28 191.13 137.704 191.043C138.128 190.956 138.559 190.913 138.996 190.913C139.297 190.913 139.614 190.945 139.946 191.009C140.279 191.068 140.603 191.159 140.917 191.282C141.231 191.401 141.525 191.547 141.799 191.72C142.072 191.893 142.3 192.091 142.482 192.314L141.136 193.422C141.035 193.148 140.903 192.914 140.739 192.718C140.58 192.522 140.404 192.362 140.213 192.239C140.026 192.112 139.832 192.018 139.632 191.959C139.436 191.9 139.254 191.87 139.085 191.87C138.921 191.87 138.736 191.877 138.531 191.891C138.326 191.904 138.132 191.943 137.95 192.007C137.772 192.071 137.62 192.169 137.492 192.301C137.369 192.428 137.308 192.606 137.308 192.834C137.308 192.998 137.344 193.139 137.417 193.258C137.494 193.372 137.595 193.472 137.718 193.559C137.841 193.641 137.98 193.711 138.135 193.771C138.294 193.825 138.456 193.875 138.62 193.921C138.784 193.962 138.944 193.998 139.099 194.03C139.254 194.062 139.393 194.096 139.516 194.133C139.725 194.192 139.946 194.254 140.179 194.317C140.416 194.377 140.648 194.447 140.876 194.529C141.104 194.607 141.323 194.7 141.532 194.81C141.746 194.914 141.933 195.044 142.093 195.199C142.252 195.354 142.38 195.536 142.476 195.746C142.571 195.951 142.619 196.195 142.619 196.478ZM152.422 195.035C152.422 195.445 152.367 195.83 152.258 196.19C152.148 196.55 151.996 196.883 151.8 197.188C151.608 197.494 151.376 197.77 151.103 198.016C150.829 198.257 150.528 198.462 150.2 198.631C149.877 198.799 149.528 198.929 149.154 199.021C148.785 199.112 148.405 199.157 148.013 199.157C147.621 199.157 147.24 199.112 146.871 199.021C146.502 198.929 146.153 198.799 145.825 198.631C145.502 198.462 145.203 198.257 144.93 198.016C144.656 197.77 144.422 197.494 144.226 197.188C144.034 196.883 143.884 196.55 143.774 196.19C143.665 195.826 143.61 195.441 143.61 195.035C143.61 194.63 143.665 194.247 143.774 193.887C143.884 193.522 144.034 193.187 144.226 192.882C144.422 192.576 144.656 192.303 144.93 192.062C145.203 191.815 145.502 191.608 145.825 191.439C146.153 191.271 146.502 191.141 146.871 191.05C147.24 190.959 147.621 190.913 148.013 190.913C148.405 190.913 148.785 190.959 149.154 191.05C149.528 191.141 149.877 191.271 150.2 191.439C150.528 191.608 150.829 191.815 151.103 192.062C151.376 192.303 151.608 192.576 151.8 192.882C151.996 193.187 152.148 193.522 152.258 193.887C152.367 194.247 152.422 194.63 152.422 195.035ZM150.07 195.035C150.07 194.816 150.057 194.586 150.029 194.345C150.007 194.099 149.965 193.859 149.906 193.627C149.847 193.39 149.765 193.164 149.66 192.95C149.56 192.731 149.435 192.542 149.284 192.383C149.134 192.219 148.954 192.089 148.744 191.993C148.535 191.893 148.291 191.843 148.013 191.843C147.748 191.843 147.514 191.893 147.309 191.993C147.104 192.093 146.924 192.228 146.769 192.396C146.618 192.561 146.491 192.752 146.386 192.971C146.285 193.189 146.203 193.417 146.14 193.654C146.076 193.887 146.03 194.124 146.003 194.365C145.976 194.602 145.962 194.826 145.962 195.035C145.962 195.245 145.976 195.47 146.003 195.712C146.03 195.949 146.076 196.186 146.14 196.423C146.203 196.66 146.285 196.888 146.386 197.106C146.491 197.321 146.618 197.512 146.769 197.681C146.924 197.845 147.104 197.977 147.309 198.077C147.514 198.177 147.748 198.228 148.013 198.228C148.286 198.228 148.528 198.18 148.737 198.084C148.947 197.984 149.127 197.852 149.277 197.688C149.432 197.523 149.56 197.334 149.66 197.12C149.76 196.906 149.84 196.68 149.899 196.443C149.963 196.206 150.007 195.967 150.029 195.726C150.057 195.484 150.07 195.254 150.07 195.035ZM156.195 199H153.885V187.468H154.773L156.195 189.867V199ZM166.073 198.05C166.073 198.679 165.98 199.271 165.793 199.827C165.606 200.383 165.335 200.868 164.979 201.283C164.624 201.702 164.187 202.033 163.667 202.274C163.152 202.521 162.564 202.644 161.903 202.644C161.539 202.644 161.17 202.603 160.796 202.521C160.427 202.438 160.076 202.311 159.743 202.138C159.415 201.969 159.119 201.753 158.854 201.488C158.595 201.229 158.39 200.921 158.239 200.565L159.237 200.189C159.324 200.413 159.436 200.618 159.572 200.805C159.714 200.992 159.875 201.151 160.058 201.283C160.24 201.42 160.44 201.525 160.659 201.598C160.878 201.675 161.108 201.714 161.35 201.714C161.805 201.714 162.186 201.62 162.491 201.434C162.801 201.247 163.049 201.003 163.236 200.702C163.423 200.401 163.558 200.06 163.64 199.677C163.722 199.299 163.763 198.913 163.763 198.521V198.057C163.489 198.43 163.159 198.708 162.771 198.891C162.389 199.068 161.967 199.157 161.507 199.157C160.905 199.157 160.368 199.05 159.894 198.836C159.42 198.622 159.019 198.33 158.69 197.961C158.362 197.587 158.112 197.15 157.938 196.648C157.765 196.147 157.679 195.609 157.679 195.035C157.679 194.461 157.765 193.923 157.938 193.422C158.112 192.921 158.362 192.485 158.69 192.116C159.019 191.743 159.42 191.449 159.894 191.234C160.368 191.02 160.905 190.913 161.507 190.913C161.812 190.913 162.102 190.959 162.375 191.05C162.653 191.141 162.906 191.271 163.134 191.439C163.366 191.604 163.569 191.804 163.742 192.041C163.92 192.273 164.059 192.533 164.159 192.82L165.185 191.104H166.073V198.05ZM163.749 195.035C163.749 194.83 163.738 194.614 163.715 194.386C163.697 194.158 163.662 193.932 163.612 193.709C163.562 193.486 163.492 193.274 163.4 193.073C163.314 192.868 163.2 192.688 163.059 192.533C162.922 192.374 162.756 192.248 162.56 192.157C162.364 192.066 162.136 192.021 161.876 192.021C161.616 192.021 161.391 192.068 161.199 192.164C161.008 192.255 160.844 192.381 160.707 192.54C160.57 192.695 160.456 192.875 160.365 193.08C160.279 193.285 160.21 193.499 160.16 193.723C160.11 193.946 160.074 194.172 160.051 194.399C160.033 194.623 160.023 194.835 160.023 195.035C160.023 195.236 160.033 195.45 160.051 195.678C160.074 195.906 160.11 196.131 160.16 196.354C160.21 196.578 160.279 196.792 160.365 196.997C160.456 197.202 160.57 197.384 160.707 197.544C160.844 197.699 161.008 197.824 161.199 197.92C161.391 198.011 161.616 198.057 161.876 198.057C162.113 198.057 162.323 198.009 162.505 197.913C162.692 197.813 162.854 197.681 162.99 197.517C163.132 197.353 163.25 197.166 163.346 196.956C163.441 196.746 163.519 196.53 163.578 196.307C163.637 196.083 163.681 195.862 163.708 195.644C163.735 195.42 163.749 195.217 163.749 195.035ZM175.958 199H173.647V198.057C173.374 198.43 173.044 198.708 172.656 198.891C172.273 199.068 171.852 199.157 171.392 199.157C170.79 199.157 170.252 199.05 169.778 198.836C169.304 198.622 168.903 198.33 168.575 197.961C168.247 197.587 167.996 197.15 167.823 196.648C167.65 196.147 167.563 195.609 167.563 195.035C167.563 194.461 167.65 193.923 167.823 193.422C167.996 192.921 168.247 192.485 168.575 192.116C168.903 191.743 169.304 191.449 169.778 191.234C170.252 191.02 170.79 190.913 171.392 190.913C171.697 190.913 171.986 190.959 172.26 191.05C172.538 191.141 172.791 191.271 173.019 191.439C173.251 191.604 173.454 191.804 173.627 192.041C173.805 192.273 173.944 192.533 174.044 192.82L175.069 191.104H175.958V199ZM173.634 195.035C173.634 194.83 173.622 194.614 173.6 194.386C173.581 194.158 173.547 193.932 173.497 193.709C173.447 193.486 173.376 193.274 173.285 193.073C173.199 192.868 173.085 192.688 172.943 192.533C172.807 192.374 172.64 192.248 172.444 192.157C172.248 192.066 172.021 192.021 171.761 192.021C171.501 192.021 171.275 192.068 171.084 192.164C170.893 192.255 170.729 192.381 170.592 192.54C170.455 192.695 170.341 192.875 170.25 193.08C170.163 193.285 170.095 193.499 170.045 193.723C169.995 193.946 169.958 194.172 169.936 194.399C169.917 194.623 169.908 194.835 169.908 195.035C169.908 195.236 169.917 195.45 169.936 195.678C169.958 195.906 169.995 196.131 170.045 196.354C170.095 196.578 170.163 196.792 170.25 196.997C170.341 197.202 170.455 197.384 170.592 197.544C170.729 197.699 170.893 197.824 171.084 197.92C171.275 198.011 171.501 198.057 171.761 198.057C171.998 198.057 172.207 198.009 172.39 197.913C172.576 197.813 172.738 197.681 172.875 197.517C173.016 197.353 173.135 197.166 173.23 196.956C173.326 196.746 173.404 196.53 173.463 196.307C173.522 196.083 173.565 195.862 173.593 195.644C173.62 195.42 173.634 195.217 173.634 195.035ZM190.108 194.393C190.108 194.935 190.045 195.5 189.917 196.088C189.789 196.676 189.609 197.25 189.377 197.811C189.149 198.367 188.873 198.893 188.55 199.39C188.226 199.886 187.866 200.317 187.47 200.682L186.602 200.21C186.734 199.973 186.854 199.706 186.964 199.41C187.073 199.114 187.174 198.802 187.265 198.474C187.356 198.146 187.436 197.808 187.504 197.462C187.572 197.116 187.629 196.771 187.675 196.43C187.725 196.083 187.761 195.748 187.784 195.425C187.807 195.101 187.818 194.798 187.818 194.516C187.818 194.356 187.814 194.183 187.805 193.996C187.796 193.809 187.775 193.622 187.743 193.436C187.716 193.249 187.673 193.071 187.613 192.902C187.554 192.729 187.472 192.576 187.367 192.444C187.267 192.308 187.139 192.201 186.984 192.123C186.834 192.041 186.652 192 186.438 192C186.228 192 186.048 192.057 185.897 192.171C185.752 192.28 185.626 192.424 185.521 192.602C185.417 192.779 185.332 192.98 185.269 193.203C185.209 193.426 185.164 193.652 185.132 193.88C185.1 194.103 185.077 194.317 185.063 194.522C185.054 194.728 185.05 194.901 185.05 195.042V199H182.746V195.322C182.746 195.163 182.748 194.971 182.753 194.748C182.757 194.52 182.751 194.283 182.732 194.037C182.719 193.791 182.689 193.547 182.644 193.306C182.603 193.06 182.534 192.841 182.438 192.649C182.347 192.458 182.222 192.303 182.062 192.185C181.903 192.062 181.702 192 181.461 192C181.256 192 181.083 192.057 180.941 192.171C180.805 192.285 180.688 192.433 180.593 192.615C180.502 192.793 180.429 192.996 180.374 193.224C180.324 193.447 180.285 193.673 180.258 193.9C180.235 194.124 180.221 194.338 180.217 194.543C180.212 194.743 180.21 194.91 180.21 195.042V199H177.893V191.104H178.781L179.629 192.943C179.82 192.305 180.121 191.809 180.531 191.453C180.946 191.093 181.495 190.913 182.179 190.913C182.794 190.913 183.304 191.041 183.71 191.296C184.116 191.551 184.435 191.966 184.667 192.54C184.799 192.289 184.945 192.064 185.104 191.863C185.269 191.663 185.449 191.492 185.645 191.351C185.845 191.209 186.066 191.102 186.308 191.029C186.549 190.952 186.816 190.913 187.107 190.913C187.645 190.913 188.103 191.002 188.481 191.18C188.864 191.353 189.176 191.594 189.418 191.904C189.66 192.214 189.835 192.583 189.944 193.012C190.054 193.436 190.108 193.896 190.108 194.393ZM193.547 195.254C193.829 195.318 194.112 195.368 194.395 195.404C194.677 195.441 194.962 195.459 195.249 195.459C195.55 195.459 195.828 195.432 196.083 195.377C196.343 195.318 196.566 195.222 196.753 195.09C196.944 194.953 197.095 194.773 197.204 194.55C197.313 194.326 197.368 194.049 197.368 193.716C197.368 193.447 197.332 193.201 197.259 192.978C197.186 192.754 197.076 192.563 196.931 192.403C196.789 192.244 196.614 192.121 196.404 192.034C196.195 191.943 195.951 191.897 195.673 191.897C195.413 191.897 195.178 191.945 194.969 192.041C194.764 192.137 194.581 192.267 194.422 192.431C194.267 192.59 194.132 192.777 194.019 192.991C193.909 193.205 193.818 193.429 193.745 193.661C193.672 193.894 193.62 194.128 193.588 194.365C193.556 194.602 193.54 194.826 193.54 195.035C193.54 195.072 193.54 195.108 193.54 195.145C193.54 195.181 193.542 195.217 193.547 195.254ZM199.241 193.695C199.241 194.019 199.189 194.308 199.084 194.563C198.979 194.814 198.836 195.035 198.653 195.227C198.476 195.418 198.268 195.58 198.031 195.712C197.794 195.844 197.541 195.953 197.272 196.04C197.004 196.122 196.726 196.181 196.438 196.218C196.156 196.254 195.88 196.272 195.611 196.272C195.27 196.272 194.932 196.25 194.6 196.204C194.267 196.154 193.939 196.076 193.615 195.972C193.665 196.272 193.745 196.56 193.854 196.833C193.964 197.102 194.11 197.339 194.292 197.544C194.474 197.744 194.698 197.904 194.962 198.022C195.231 198.141 195.548 198.2 195.912 198.2C196.154 198.2 196.384 198.164 196.603 198.091C196.821 198.018 197.022 197.915 197.204 197.783C197.386 197.651 197.546 197.494 197.683 197.312C197.824 197.129 197.938 196.926 198.024 196.703L199.022 197.072C198.872 197.432 198.665 197.744 198.4 198.009C198.141 198.269 197.844 198.485 197.512 198.658C197.184 198.827 196.833 198.952 196.459 199.034C196.09 199.116 195.723 199.157 195.358 199.157C194.757 199.157 194.201 199.057 193.69 198.856C193.18 198.651 192.74 198.367 192.371 198.002C192.002 197.637 191.713 197.202 191.503 196.696C191.293 196.19 191.188 195.637 191.188 195.035C191.188 194.434 191.293 193.88 191.503 193.374C191.713 192.868 192.002 192.433 192.371 192.068C192.74 191.704 193.18 191.421 193.69 191.221C194.201 191.016 194.757 190.913 195.358 190.913C195.65 190.913 195.949 190.934 196.254 190.975C196.559 191.016 196.855 191.082 197.143 191.173C197.43 191.259 197.701 191.373 197.956 191.515C198.211 191.656 198.432 191.831 198.619 192.041C198.811 192.246 198.961 192.485 199.07 192.759C199.184 193.032 199.241 193.344 199.241 193.695ZM207.479 196.478C207.479 196.824 207.428 197.132 207.328 197.4C207.228 197.669 207.091 197.904 206.918 198.104C206.745 198.3 206.54 198.467 206.303 198.604C206.066 198.736 205.811 198.843 205.537 198.925C205.268 199.007 204.986 199.066 204.689 199.103C204.393 199.139 204.099 199.157 203.808 199.157C203.416 199.157 203.069 199.132 202.769 199.082C202.468 199.032 202.181 198.952 201.907 198.843C201.634 198.729 201.36 198.583 201.087 198.405C200.818 198.228 200.517 198.011 200.185 197.756L201.531 196.655C201.654 196.888 201.816 197.1 202.017 197.291C202.222 197.478 202.434 197.64 202.652 197.776C202.871 197.913 203.083 198.018 203.288 198.091C203.493 198.164 203.66 198.2 203.787 198.2C203.892 198.2 204.01 198.198 204.143 198.193C204.275 198.184 204.409 198.171 204.546 198.152C204.683 198.13 204.817 198.098 204.949 198.057C205.081 198.016 205.198 197.961 205.298 197.893C205.403 197.82 205.485 197.731 205.544 197.626C205.608 197.517 205.64 197.387 205.64 197.236C205.64 197.081 205.599 196.947 205.517 196.833C205.439 196.715 205.337 196.612 205.209 196.525C205.081 196.439 204.936 196.366 204.771 196.307C204.607 196.247 204.441 196.195 204.272 196.149C204.108 196.104 203.949 196.065 203.794 196.033C203.639 195.997 203.505 195.963 203.391 195.931C203.181 195.871 202.96 195.812 202.728 195.753C202.495 195.689 202.265 195.618 202.037 195.541C201.809 195.459 201.59 195.363 201.381 195.254C201.176 195.145 200.993 195.015 200.834 194.864C200.679 194.709 200.554 194.529 200.458 194.324C200.367 194.115 200.321 193.871 200.321 193.593C200.321 193.082 200.422 192.656 200.622 192.314C200.827 191.968 201.096 191.692 201.429 191.487C201.761 191.278 202.14 191.13 202.563 191.043C202.987 190.956 203.418 190.913 203.855 190.913C204.156 190.913 204.473 190.945 204.806 191.009C205.138 191.068 205.462 191.159 205.776 191.282C206.091 191.401 206.385 191.547 206.658 191.72C206.932 191.893 207.16 192.091 207.342 192.314L205.995 193.422C205.895 193.148 205.763 192.914 205.599 192.718C205.439 192.522 205.264 192.362 205.072 192.239C204.885 192.112 204.692 192.018 204.491 191.959C204.295 191.9 204.113 191.87 203.944 191.87C203.78 191.87 203.596 191.877 203.391 191.891C203.186 191.904 202.992 191.943 202.81 192.007C202.632 192.071 202.479 192.169 202.352 192.301C202.229 192.428 202.167 192.606 202.167 192.834C202.167 192.998 202.203 193.139 202.276 193.258C202.354 193.372 202.454 193.472 202.577 193.559C202.7 193.641 202.839 193.711 202.994 193.771C203.154 193.825 203.315 193.875 203.479 193.921C203.644 193.962 203.803 193.998 203.958 194.03C204.113 194.062 204.252 194.096 204.375 194.133C204.585 194.192 204.806 194.254 205.038 194.317C205.275 194.377 205.507 194.447 205.735 194.529C205.963 194.607 206.182 194.7 206.392 194.81C206.606 194.914 206.793 195.044 206.952 195.199C207.112 195.354 207.239 195.536 207.335 195.746C207.431 195.951 207.479 196.195 207.479 196.478ZM211.184 197.975C211.184 198.148 211.152 198.312 211.088 198.467C211.024 198.617 210.935 198.749 210.821 198.863C210.707 198.973 210.575 199.059 210.425 199.123C210.274 199.191 210.113 199.226 209.939 199.226C209.766 199.226 209.604 199.191 209.454 199.123C209.304 199.059 209.172 198.973 209.058 198.863C208.944 198.749 208.855 198.617 208.791 198.467C208.727 198.312 208.695 198.148 208.695 197.975C208.695 197.806 208.727 197.646 208.791 197.496C208.855 197.341 208.944 197.209 209.058 197.1C209.172 196.986 209.304 196.897 209.454 196.833C209.604 196.765 209.766 196.73 209.939 196.73C210.113 196.73 210.274 196.765 210.425 196.833C210.575 196.897 210.707 196.986 210.821 197.1C210.935 197.209 211.024 197.341 211.088 197.496C211.152 197.646 211.184 197.806 211.184 197.975ZM219.94 187.857L218.635 190.018C218.621 189.844 218.589 189.646 218.539 189.423C218.489 189.195 218.405 188.981 218.286 188.78C218.172 188.58 218.013 188.411 217.808 188.274C217.607 188.133 217.35 188.062 217.035 188.062C216.712 188.062 216.452 188.126 216.256 188.254C216.06 188.382 215.91 188.573 215.805 188.828C215.7 189.083 215.629 189.4 215.593 189.778C215.556 190.157 215.538 190.596 215.538 191.098H217.931V192.014H215.538V199H213.221V192.014H211.785V191.098H213.221C213.221 190.373 213.298 189.751 213.453 189.231C213.608 188.712 213.843 188.286 214.157 187.953C214.472 187.616 214.866 187.37 215.34 187.215C215.818 187.055 216.377 186.976 217.015 186.976C217.397 186.976 217.739 187.003 218.04 187.058C218.345 187.108 218.614 187.176 218.847 187.263C219.084 187.345 219.291 187.438 219.469 187.543C219.646 187.648 219.804 187.753 219.94 187.857ZM218.505 195.623C218.505 195.263 218.535 194.889 218.594 194.502C218.658 194.115 218.746 193.727 218.86 193.34C218.979 192.952 219.12 192.57 219.284 192.191C219.448 191.813 219.633 191.451 219.838 191.104H221.526C221.412 191.446 221.31 191.804 221.219 192.178C221.132 192.547 221.057 192.918 220.993 193.292C220.934 193.661 220.886 194.023 220.85 194.379C220.818 194.734 220.802 195.065 220.802 195.37C220.802 195.548 220.809 195.739 220.822 195.944C220.84 196.145 220.87 196.348 220.911 196.553C220.952 196.753 221.009 196.947 221.082 197.134C221.16 197.321 221.257 197.487 221.376 197.633C221.494 197.774 221.638 197.888 221.807 197.975C221.98 198.057 222.183 198.098 222.415 198.098C222.643 198.098 222.846 198.048 223.023 197.947C223.206 197.842 223.365 197.708 223.502 197.544C223.639 197.375 223.755 197.184 223.851 196.97C223.946 196.756 224.024 196.537 224.083 196.313C224.147 196.086 224.192 195.865 224.22 195.65C224.252 195.432 224.268 195.236 224.268 195.062V191.104H226.578V199H225.689L224.63 197.161C224.498 197.466 224.336 197.744 224.145 197.995C223.958 198.241 223.743 198.453 223.502 198.631C223.26 198.809 222.992 198.945 222.695 199.041C222.404 199.137 222.087 199.185 221.745 199.185C221.198 199.185 220.722 199.096 220.316 198.918C219.911 198.74 219.574 198.494 219.305 198.18C219.036 197.865 218.835 197.492 218.703 197.059C218.571 196.621 218.505 196.143 218.505 195.623ZM236.579 194.475C236.579 195.008 236.513 195.564 236.381 196.143C236.253 196.721 236.073 197.289 235.841 197.845C235.608 198.401 235.33 198.923 235.007 199.41C234.683 199.902 234.328 200.326 233.94 200.682L233.072 200.21C233.195 199.982 233.312 199.727 233.421 199.444C233.53 199.162 233.628 198.863 233.715 198.549C233.806 198.23 233.886 197.902 233.954 197.564C234.027 197.227 234.086 196.895 234.132 196.566C234.182 196.234 234.218 195.912 234.241 195.603C234.269 195.288 234.282 194.996 234.282 194.728C234.282 194.55 234.275 194.361 234.262 194.16C234.248 193.955 234.218 193.752 234.173 193.552C234.132 193.347 234.075 193.151 234.002 192.964C233.929 192.777 233.831 192.613 233.708 192.472C233.59 192.33 233.444 192.216 233.271 192.13C233.102 192.043 232.901 192 232.669 192C232.441 192 232.238 192.052 232.061 192.157C231.883 192.257 231.726 192.392 231.589 192.561C231.452 192.725 231.334 192.914 231.233 193.128C231.138 193.342 231.058 193.563 230.994 193.791C230.935 194.014 230.892 194.235 230.864 194.454C230.837 194.673 230.823 194.869 230.823 195.042V199H228.506V191.104H229.395L230.454 192.943C230.582 192.638 230.741 192.36 230.933 192.109C231.124 191.859 231.34 191.645 231.582 191.467C231.824 191.289 232.09 191.152 232.382 191.057C232.678 190.961 232.997 190.913 233.339 190.913C233.886 190.913 234.362 191.002 234.768 191.18C235.173 191.357 235.51 191.606 235.779 191.925C236.048 192.239 236.249 192.615 236.381 193.053C236.513 193.486 236.579 193.96 236.579 194.475Z" fill="black"/>
<defs>
<linearGradient id="paint0_linear_1_104" x1="186" y1="106" x2="186" y2="248" gradientUnits="userSpaceOnUse">
<stop stop-color="#FAD678"/>
<stop offset="1" stop-color="#DFBD66"/>
</linearGradient>
</defs>
</svg>
